GIL01_slow3_ik
nRows=3
nColumns=375

# SIMM Motion File Header:
name GIL01_slow3_ik
datacolumns 375
datarows 3
otherdata 1
range 1.35833000 1.37500000
endheader
time	pelvis_tx	pelvis_ty	pelvis_tz	pelvis_tilt	pelvis_list	pelvis_rotation	hip_flexion_r	hip_adduction_r	hip_rotation_r	knee_angle_r	ankle_angle_r	hip_flexion_l	hip_adduction_l	hip_rotation_l	knee_angle_l	ankle_angle_l	lumbar_extension	lumbar_bending	lumbar_rotation	subtalar_angle_r	mtp_angle_r	subtalar_angle_l	mtp_angle_l	asis_r_px	asis_r_py	asis_r_pz	asis_l_px	asis_l_py	asis_l_pz	midasis_px	midasis_py	midasis_pz	psis_r_px	psis_r_py	psis_r_pz	psis_l_px	psis_l_py	psis_l_pz	hip_r_px	hip_r_py	hip_r_pz	hip_l_px	hip_l_py	hip_l_pz	midhip_px	midhip_py	midhip_pz	epicondLat_r_px	epicondLat_r_py	epicondLat_r_pz	epicondMed_r_px	epicondMed_r_py	epicondMed_r_pz	thighwand_r_px	thighwand_r_py	thighwand_r_pz	upperleg1_r_px	upperleg1_r_py	upperleg1_r_pz	upperleg2_r_px	upperleg2_r_py	upperleg2_r_pz	malleolusLat_r_px	malleolusLat_r_py	malleolusLat_r_pz	malleolusMedv_r_px	malleolusMedv_r_py	malleolusMedv_r_pz	shankwand_r_px	shankwand_r_py	shankwand_r_pz	lowerleg1_r_px	lowerleg1_r_py	lowerleg1_r_pz	knee_r_px	knee_r_py	knee_r_pz	ankle_r_px	ankle_r_py	ankle_r_pz	toe_r_px	toe_r_py	toe_r_pz	epicondLat_l_px	epicondLat_l_py	epicondLat_l_pz	epicondMed_l_px	epicondMed_l_py	epicondMed_l_pz	thighwand_l_px	thighwand_l_py	thighwand_l_pz	upperleg1_l_px	upperleg1_l_py	upperleg1_l_pz	upperleg2_l_px	upperleg2_l_py	upperleg2_l_pz	malleolusLat_l_px	malleolusLat_l_py	malleolusLat_l_pz	malleolusMedv_l_px	malleolusMedv_l_py	malleolusMedv_l_pz	shankwand_l_px	shankwand_l_py	shankwand_l_pz	lowerleg1_l_px	lowerleg1_l_py	lowerleg1_l_pz	knee_l_px	knee_l_py	knee_l_pz	ankle_l_px	ankle_l_py	ankle_l_pz	toe_l_px	toe_l_py	toe_l_pz	subclavicle_r_px	subclavicle_r_py	subclavicle_r_pz	subclavicle_l_px	subclavicle_l_py	subclavicle_l_pz	neck_px	neck_py	neck_pz	sternalnotch_px	sternalnotch_py	sternalnotch_pz	xyphoidprocess_px	xyphoidprocess_py	xyphoidprocess_pz	midhip_tx	midhip_ty	midhip_tz	hip_r_tx	hip_r_ty	hip_r_tz	hip_l_tx	hip_l_ty	hip_l_tz	knee_r_tx	knee_r_ty	knee_r_tz	knee_l_tx	knee_l_ty	knee_l_tz	ankle_r_tx	ankle_r_ty	ankle_r_tz	ankle_l_tx	ankle_l_ty	ankle_l_tz	midasis_tx	midasis_ty	midasis_tz	asis_r_tx	asis_r_ty	asis_r_tz	asis_l_tx	asis_l_ty	asis_l_tz	psis_r_tx	psis_r_ty	psis_r_tz	psis_l_tx	psis_l_ty	psis_l_tz	epicondLat_r_tx	epicondLat_r_ty	epicondLat_r_tz	epicondLat_l_tx	epicondLat_l_ty	epicondLat_l_tz	epicondMed_r_tx	epicondMed_r_ty	epicondMed_r_tz	epicondMed_l_tx	epicondMed_l_ty	epicondMed_l_tz	malleolusLat_r_tx	malleolusLat_r_ty	malleolusLat_r_tz	malleolusLat_l_tx	malleolusLat_l_ty	malleolusLat_l_tz	malleolusMedv_r_tx	malleolusMedv_r_ty	malleolusMedv_r_tz	malleolusMedv_l_tx	malleolusMedv_l_ty	malleolusMedv_l_tz	neck_tx	neck_ty	neck_tz	subclavicle_r_tx	subclavicle_r_ty	subclavicle_r_tz	subclavicle_l_tx	subclavicle_l_ty	subclavicle_l_tz	sternalnotch_tx	sternalnotch_ty	sternalnotch_tz	xyphoidprocess_tx	xyphoidprocess_ty	xyphoidprocess_tz	thighwand_r_tx	thighwand_r_ty	thighwand_r_tz	thighwand_l_tx	thighwand_l_ty	thighwand_l_tz	upperleg1_r_tx	upperleg1_r_ty	upperleg1_r_tz	upperleg1_l_tx	upperleg1_l_ty	upperleg1_l_tz	upperleg2_r_tx	upperleg2_r_ty	upperleg2_r_tz	upperleg2_l_tx	upperleg2_l_ty	upperleg2_l_tz	shankwand_r_tx	shankwand_r_ty	shankwand_r_tz	shankwand_l_tx	shankwand_l_ty	shankwand_l_tz	lowerleg1_r_tx	lowerleg1_r_ty	lowerleg1_r_tz	lowerleg1_l_tx	lowerleg1_l_ty	lowerleg1_l_tz	toe_r_tx	toe_r_ty	toe_r_tz	toe_l_tx	toe_l_ty	toe_l_tz	ground_force_vx	ground_force_vy	ground_force_vz	ground_force_px	ground_force_py	ground_force_pz	ground_force_vx	ground_force_vy	ground_force_vz	ground_force_px	ground_force_py	ground_force_pz	ground_torque_x	ground_torque_y	ground_torque_z	ground_torque_x	ground_torque_y	ground_torque_z	ground_marker_px	ground_marker_py	ground_marker_pz	ground_marker_px	ground_marker_py	ground_marker_pz	ground_marker_px	ground_marker_py	ground_marker_pz	ground_marker_px	ground_marker_py	ground_marker_pz	ground_marker_px	ground_marker_py	ground_marker_pz	ground_marker_px	ground_marker_py	ground_marker_pz	ground_marker_px	ground_marker_py	ground_marker_pz	ground_marker_px	ground_marker_py	ground_marker_pz	ground_marker_px	ground_marker_py	ground_marker_pz	ground_marker_px	ground_marker_py	ground_marker_pz	ground_marker_px	ground_marker_py	ground_marker_pz	ground_marker_px	ground_marker_py	ground_marker_pz	ground_marker_px	ground_marker_py	ground_marker_pz	ground_marker_px	ground_marker_py	ground_marker_pz	ground_marker_px	ground_marker_py	ground_marker_pz	ground_marker_px	ground_marker_py	ground_marker_pz	ground_marker_px	ground_marker_py	ground_marker_pz	ground_marker_px	ground_marker_py	ground_marker_pz	ground_marker_px	ground_marker_py	ground_marker_pz	ground_marker_px	ground_marker_py	ground_marker_pz	ground_marker_px	ground_marker_py	ground_marker_pz	ground_marker_px	ground_marker_py	ground_marker_pz	ground_marker_px	ground_marker_py	ground_marker_pz	ground_marker_px	ground_marker_py	ground_marker_pz	ground_marker_px	ground_marker_py	ground_marker_pz	ground_marker_px	ground_marker_py	ground_marker_pz	ground_marker_px	ground_marker_py	ground_marker_pz	ground_marker_px	ground_marker_py	ground_marker_pz	ground_marker_px	ground_marker_py	ground_marker_pz	ground_marker_px	ground_marker_py	ground_marker_pz	ground_marker_px	ground_marker_py	ground_marker_pz	ground_marker_px	ground_marker_py	ground_marker_pz	ground_marker_px	ground_marker_py	ground_marker_pz	ground_marker_px	ground_marker_py	ground_marker_pz	ground_marker_px	ground_marker_py	ground_marker_pz	ground_marker_px	ground_marker_py	ground_marker_pz	ground_marker_px	ground_marker_py	ground_marker_pz
      1.35833000	     -0.25721926	      0.80202258	      0.28084321	     -3.46340708	      1.47495936	     -6.65706620	      1.04245027	      5.94326155	     -3.74304070	     -2.84604828	      4.94458070	     23.97757306	     -4.66815119	     -1.11634622	    -34.46506607	      1.98025276	      3.25314028	     -2.70438089	      3.56870389	      0.00000000	      0.00000000	      0.00000000	      0.00000000	     -0.24982817	      0.80017434	      0.38550405	     -0.20800621	      0.79863641	      0.18016236	     -0.24585890	      0.80130077	      0.28217135	     -0.38551705	      0.85265074	      0.28455882	     -0.37833358	      0.85188220	      0.22988762	     -0.32587196	      0.75040886	      0.34061364	     -0.30984177	      0.75294021	      0.20487305	     -0.31785686	      0.75167454	      0.27274334	     -0.38391970	      0.39711447	      0.34874776	     -0.35805837	      0.41167882	      0.24572283	     -0.27650718	      0.49665516	      0.43215234	     -0.33462640	      0.56559381	      0.39537619	     -0.34402341	      0.48232412	      0.36774980	     -0.38381553	      0.05749995	      0.29373066	     -0.35979944	      0.06460792	      0.23897344	     -0.41908252	      0.16025662	      0.37514173	     -0.39679477	      0.13393750	      0.30001187	     -0.33939324	      0.41846696	      0.29766468	     -0.36690359	      0.07324451	      0.25043960	     -0.27639198	      0.02442780	      0.30334653	     -0.21832115	      0.43293133	      0.12883335	     -0.23022020	      0.36762626	      0.25254836	     -0.09746545	      0.59138102	      0.18691941	     -0.17943917	      0.63330611	      0.15619334	     -0.19526255	      0.49473764	      0.18065975	     -0.28104766	      0.10143051	      0.10233923	     -0.26965880	      0.09034192	      0.15601130	     -0.24924270	      0.23107176	      0.04423079	     -0.27048181	      0.18538013	      0.11152876	     -0.18835328	      0.43797852	      0.18560919	     -0.27006183	      0.10002207	      0.14990602	     -0.17659168	      0.04889389	      0.10714209	     -0.28615577	      1.16822586	      0.31134459	     -0.28144860	      1.17648992	      0.23673383	     -0.39212704	      1.21249208	      0.25777815	     -0.29762256	      1.16944016	      0.27144002	     -0.25748301	      1.09234528	      0.26783332	     -0.30954700	      0.74670700	      0.27018800	     -0.32831700	      0.74679900	      0.33011200	     -0.31244900	      0.74710000	      0.20076600	     -0.33819700	      0.40900600	      0.29035700	     -0.19388300	      0.43922300	      0.18669700	     -0.36778500	      0.06564900	      0.25984200	     -0.27402000	      0.09992600	      0.15336500	     -0.24879200	      0.81393900	      0.27437700	     -0.26113100	      0.81370500	      0.37495400	     -0.23645400	      0.81417200	      0.17380100	     -0.40755800	      0.85907600	      0.28676000	     -0.40292300	      0.85586600	      0.23204900	     -0.34867000	      0.40299700	      0.34401500	     -0.18982000	      0.44326500	      0.13249900	     -0.32341900	      0.41873200	      0.24766700	     -0.19028000	      0.40626100	      0.22745100	     -0.38124800	      0.06370400	      0.29478800	     -0.27476600	      0.10371700	      0.11656700	     -0.36483100	      0.07061200	      0.23498700	     -0.27238300	      0.09851000	      0.18302000	     -0.39123000	      1.22140500	      0.25834000	     -0.28531600	      1.16477200	      0.30969500	     -0.27916600	      1.16897700	      0.23403100	     -0.29674300	      1.16529300	      0.26919500	     -0.26612600	      1.08392000	      0.26957700	     -0.25347300	      0.51887200	      0.42957400	     -0.09935700	      0.60249400	      0.19916700	     -0.31921300	      0.57946000	      0.39038000	     -0.18090600	      0.63356200	      0.15565200	     -0.31834400	      0.49656600	      0.36679600	     -0.15923700	      0.54876900	      0.15570400	     -0.39750400	      0.16871200	      0.37855500	     -0.21843400	      0.22208300	      0.05489500	     -0.38603800	      0.13972300	      0.30161400	     -0.25285200	      0.18389700	      0.12295500	     -0.27563300	      0.03665600	      0.28750500	     -0.18274600	      0.05212200	      0.14587000	      6.05202545	    393.58036279	      5.67896140	     -0.33088193	      0.00000000	      0.27798184	      0.00000000	      0.00000000	      0.00000000	     -0.65125665	      0.00000000	      0.20369371	      0.00000000	      1.54616064	      0.00000000	      0.00000000	      0.00000000	      0.00000000	     -0.30954674	      0.74670655	      0.27018821	     -0.32831711	      0.74679923	      0.33011159	     -0.31244886	      0.74709976	      0.20076618	     -0.33819720	      0.40900603	      0.29035661	     -0.19388302	      0.43922320	      0.18669726	     -0.36778525	      0.06564922	      0.25984249	     -0.27401951	      0.09992612	      0.15336500	     -0.24879241	      0.81393880	      0.27437732	     -0.26113123	      0.81370515	      0.37495372	     -0.23645358	      0.81417245	      0.17380092	     -0.40755808	      0.85907602	      0.28675997	     -0.40292343	      0.85586601	      0.23204854	     -0.34866953	      0.40299729	      0.34401500	     -0.18981999	      0.44326454	      0.13249940	     -0.32341906	      0.41873217	      0.24766703	     -0.19027986	      0.40626103	      0.22745107	     -0.38124821	      0.06370372	      0.29478836	     -0.27476630	      0.10371748	      0.11656734	     -0.36483148	      0.07061197	      0.23498701	     -0.27238339	      0.09851035	      0.18302049	     -0.39123031	      1.22140479	      0.25834015	     -0.28531581	      1.16477156	      0.30969504	     -0.27916607	      1.16897738	      0.23403135	     -0.29674289	      1.16529262	      0.26919481	     -0.26612553	      1.08391988	      0.26957682	     -0.25347257	      0.51887214	      0.42957380	     -0.09935663	      0.60249388	      0.19916670	     -0.31921285	      0.57946020	      0.39038029	     -0.18090603	      0.63356233	      0.15565231	     -0.31834373	      0.49656647	      0.36679646	     -0.15923691	      0.54876888	      0.15570377	     -0.39750430	      0.16871195	      0.37855545	     -0.21843401	      0.22208279	      0.05489489	     -0.38603792	      0.13972321	      0.30161411	     -0.25285196	      0.18389738	      0.12295471	     -0.27563250	      0.03665550	      0.28750464	     -0.18274626	      0.05212229	      0.14586958
      1.36667000	     -0.25234893	      0.80110152	      0.28059465	     -3.49479119	      1.53252712	     -6.60016294	      0.63056679	      5.85636633	     -3.42524105	     -2.76737768	      5.33746873	     24.16892343	     -4.53292045	     -0.96653414	    -32.16608702	      1.90293435	      3.30269460	     -2.70949338	      3.84040320	      0.00000000	      0.00000000	      0.00000000	      0.00000000	     -0.24486150	      0.79913814	      0.38524655	     -0.20323127	      0.79779677	      0.17986451	     -0.24098771	      0.80037238	      0.28191145	     -0.38061674	      0.85179257	      0.28448342	     -0.37348451	      0.85107842	      0.22980477	     -0.32097297	      0.74946006	      0.34037402	     -0.30506766	      0.75212740	      0.20462135	     -0.31302032	      0.75079373	      0.27249769	     -0.38148495	      0.39658375	      0.34869468	     -0.35620474	      0.41102614	      0.24550847	     -0.27281367	      0.49530496	      0.43144004	     -0.33068230	      0.56467877	      0.39508950	     -0.34085641	      0.48149509	      0.36747927	     -0.38369276	      0.05695244	      0.29356774	     -0.35999100	      0.06394058	      0.23865835	     -0.41783575	      0.15988282	      0.37523811	     -0.39618790	      0.13346166	      0.29995712	     -0.33715497	      0.41765466	      0.29732827	     -0.36697058	      0.07261412	      0.25017303	     -0.27619425	      0.02392987	      0.30274742	     -0.21260635	      0.43229222	      0.12898997	     -0.22464687	      0.36703144	      0.25271466	     -0.09226634	      0.59106222	      0.18727173	     -0.17426541	      0.63277468	      0.15632470	     -0.18981865	      0.49418338	      0.18083494	     -0.26106611	      0.09722853	      0.10322245	     -0.24954080	      0.08680973	      0.15699949	     -0.23441518	      0.22790314	      0.04483687	     -0.25410893	      0.18157965	      0.11217284	     -0.18316238	      0.43766686	      0.18582663	     -0.25031557	      0.09644383	      0.15085733	     -0.15457600	      0.04903458	      0.10883578	     -0.28109651	      1.16732801	      0.31123880	     -0.27681288	      1.17566146	      0.23661025	     -0.38737756	      1.21162219	      0.25831308	     -0.29278898	      1.16857663	      0.27140084	     -0.25265546	      1.09149311	      0.26749642	     -0.30557500	      0.74526200	      0.27001800	     -0.32321600	      0.74629300	      0.33005100	     -0.30744700	      0.74672300	      0.20069400	     -0.33588600	      0.40873300	      0.29015200	     -0.18812100	      0.43875100	      0.18715800	     -0.36778000	      0.06558200	      0.25969000	     -0.25393300	      0.09559500	      0.15381500	     -0.24368200	      0.81343100	      0.27432900	     -0.25595200	      0.81309600	      0.37499100	     -0.23141100	      0.81376600	      0.17366800	     -0.40230500	      0.85871000	      0.28676000	     -0.39778500	      0.85546900	      0.23205500	     -0.34606100	      0.40276500	      0.34387200	     -0.18393100	      0.44275600	      0.13296700	     -0.31952100	      0.41865600	      0.24733300	     -0.18413600	      0.40574400	      0.22808300	     -0.38108200	      0.06371000	      0.29470200	     -0.25445300	      0.09927200	      0.11700200	     -0.36467300	      0.07051700	      0.23486900	     -0.25257800	      0.09425300	      0.18349700	     -0.38649100	      1.22076800	      0.25886800	     -0.28022500	      1.16418400	      0.30964500	     -0.27452300	      1.16848200	      0.23383700	     -0.29189000	      1.16473900	      0.26915800	     -0.26118800	      1.08339800	      0.26927200	     -0.24947000	      0.51807700	      0.42888500	     -0.09429900	      0.60214000	      0.19971100	     -0.31490400	      0.57915300	      0.39013200	     -0.17579100	      0.63304000	      0.15609600	     -0.31419400	      0.49650500	      0.36654900	     -0.15367100	      0.54833300	      0.15627600	     -0.39624900	      0.16874300	      0.37852100	     -0.20239700	      0.21990600	      0.05560600	     -0.38517600	      0.13965200	      0.30172700	     -0.23448300	      0.18073500	      0.12300400	     -0.27554000	      0.03662400	      0.28734200	     -0.16064100	      0.05140300	      0.14761600	      6.91608752	    394.13743167	      4.25707446	     -0.32856381	      0.00000000	      0.27826239	      0.00000000	      0.00000000	      0.00000000	     -0.64901251	      0.00000000	      0.20408432	      0.00000000	      1.31184741	      0.00000000	      0.00000000	      0.00000000	      0.00000000	     -0.30557549	      0.74526215	      0.27001840	     -0.32321602	      0.74629271	      0.33005106	     -0.30744737	      0.74672300	      0.20069382	     -0.33588585	      0.40873286	      0.29015192	     -0.18812068	      0.43875128	      0.18715760	     -0.36778018	      0.06558200	      0.25968981	     -0.25393254	      0.09559536	      0.15381511	     -0.24368183	      0.81343132	      0.27432919	     -0.25595248	      0.81309646	      0.37499070	     -0.23141119	      0.81376618	      0.17366770	     -0.40230522	      0.85870981	      0.28675994	     -0.39778474	      0.85546899	      0.23205529	     -0.34606135	      0.40276513	      0.34387198	     -0.18393126	      0.44275635	      0.13296665	     -0.31952050	      0.41865623	      0.24733277	     -0.18413603	      0.40574431	      0.22808342	     -0.38108164	      0.06371026	      0.29470152	     -0.25445327	      0.09927215	      0.11700193	     -0.36467278	      0.07051738	      0.23486893	     -0.25257754	      0.09425317	      0.18349709	     -0.38649118	      1.22076762	      0.25886777	     -0.28022510	      1.16418445	      0.30964500	     -0.27452332	      1.16848159	      0.23383686	     -0.29189020	      1.16473901	      0.26915759	     -0.26118815	      1.08339751	      0.26927167	     -0.24946991	      0.51807737	      0.42888534	     -0.09429860	      0.60214043	      0.19971061	     -0.31490380	      0.57915288	      0.39013204	     -0.17579059	      0.63304001	      0.15609621	     -0.31419358	      0.49650529	      0.36654907	     -0.15367074	      0.54833317	      0.15627590	     -0.39624918	      0.16874251	      0.37852144	     -0.20239669	      0.21990639	      0.05560650	     -0.38517553	      0.13965157	      0.30172706	     -0.23448335	      0.18073454	      0.12300386	     -0.27553967	      0.03662412	      0.28734192	     -0.16064061	      0.05140255	      0.14761631
      1.37500000	     -0.24730797	      0.80017330	      0.28041985	     -3.52992333	      1.56229532	     -6.54529629	      0.21462399	      5.78364579	     -3.17429897	     -2.70295007	      5.74866525	     24.32252052	     -4.44005017	     -0.91545364	    -29.81995929	      1.75223629	      3.38084031	     -2.69110162	      4.09794481	      0.00000000	      0.00000000	      0.00000000	      0.00000000	     -0.23972505	      0.79814509	      0.38506363	     -0.19828530	      0.79689789	      0.17964249	     -0.23594597	      0.79943673	      0.28172573	     -0.37554233	      0.85093739	      0.28445635	     -0.36846102	      0.85025063	      0.22977074	     -0.31590710	      0.74853763	      0.34023278	     -0.30012560	      0.75127402	      0.20446704	     -0.30801635	      0.74990583	      0.27234991	     -0.37897793	      0.39611487	      0.34877098	     -0.35415736	      0.41040766	      0.24545244	     -0.26912862	      0.49400067	      0.43095139	     -0.32668141	      0.56381321	      0.39494097	     -0.33762090	      0.48071699	      0.36736005	     -0.38360640	      0.05647904	      0.29361132	     -0.36015510	      0.06332680	      0.23857684	     -0.41666425	      0.15960897	      0.37547615	     -0.39558581	      0.13306428	      0.30007712	     -0.33478177	      0.41688089	      0.29716860	     -0.36701833	      0.07204221	      0.25012978	     -0.27605116	      0.02348639	      0.30249267	     -0.20703643	      0.43154004	      0.12917870	     -0.21902259	      0.36637092	      0.25295697	     -0.08701940	      0.59058451	      0.18737804	     -0.16907858	      0.63211769	      0.15634932	     -0.18439004	      0.49352059	      0.18097877	     -0.24104252	      0.09346953	      0.10445629	     -0.22930966	      0.08375519	      0.15832025	     -0.21972560	      0.22493560	      0.04565780	     -0.23771403	      0.17807367	      0.11309828	     -0.17802379	      0.43722456	      0.18601498	     -0.23046751	      0.09332416	      0.15213668	     -0.13273132	      0.04960598	      0.11071365	     -0.27601567	      1.16645351	      0.31114257	     -0.27213992	      1.17484779	      0.23649854	     -0.38261059	      1.21071569	      0.25882477	     -0.28792348	      1.16772500	      0.27136917	     -0.24775894	      1.09067213	      0.26718851	     -0.30120300	      0.74397100	      0.27038300	     -0.31805500	      0.74579600	      0.32997200	     -0.30239800	      0.74626900	      0.20060200	     -0.33352200	      0.40844000	      0.29010100	     -0.18249500	      0.43815300	      0.18756000	     -0.36779600	      0.06551000	      0.25961600	     -0.23373900	      0.09168800	      0.15444800	     -0.23851500	      0.81289400	      0.27421000	     -0.25071000	      0.81252500	      0.37497300	     -0.22632000	      0.81326300	      0.17344700	     -0.39695800	      0.85830600	      0.28666200	     -0.39230500	      0.85494800	      0.23199900	     -0.34345700	      0.40254000	      0.34387400	     -0.17828200	      0.44208600	      0.13336500	     -0.31664400	      0.41857700	      0.24712800	     -0.17883000	      0.40513600	      0.22852800	     -0.38094000	      0.06370600	      0.29469100	     -0.23412400	      0.09526400	      0.11762300	     -0.36465900	      0.07046700	      0.23484200	     -0.23277500	      0.09041200	      0.18413500	     -0.38174600	      1.22004200	      0.25939400	     -0.27511700	      1.16362400	      0.30948800	     -0.26982000	      1.16791500	      0.23365600	     -0.28699500	      1.16415400	      0.26906500	     -0.25617700	      1.08285700	      0.26903200	     -0.24553900	      0.51733300	      0.42839000	     -0.08928500	      0.60158000	      0.19991000	     -0.31109100	      0.57883500	      0.39008000	     -0.17086800	      0.63237300	      0.15633900	     -0.31062400	      0.49633200	      0.36642800	     -0.14863200	      0.54771600	      0.15657200	     -0.39501200	      0.16876200	      0.37860800	     -0.18665300	      0.21806000	      0.05637900	     -0.38432500	      0.13959400	      0.30197500	     -0.21908700	      0.17751900	      0.12378300	     -0.27549000	      0.03659300	      0.28725000	     -0.13868300	      0.05110200	      0.14958000	      7.59351703	    393.34911601	      1.45443591	     -0.32584360	      0.00000000	      0.27885471	      0.00000000	      0.00000000	      0.00000000	     -0.64669104	      0.00000000	      0.20444757	      0.00000000	      1.05014551	      0.00000000	      0.00000000	      0.00000000	      0.00000000	     -0.30120343	      0.74397051	      0.27038339	     -0.31805497	      0.74579561	      0.32997218	     -0.30239788	      0.74626899	      0.20060152	     -0.33352175	      0.40843955	      0.29010102	     -0.18249507	      0.43815276	      0.18755950	     -0.36779591	      0.06551035	      0.25961599	     -0.23373935	      0.09168789	      0.15444806	     -0.23851469	      0.81289387	      0.27421039	     -0.25070950	      0.81252515	      0.37497333	     -0.22631988	      0.81326258	      0.17344746	     -0.39695770	      0.85830641	      0.28666183	     -0.39230475	      0.85494769	      0.23199916	     -0.34345666	      0.40253979	      0.34387359	     -0.17828193	      0.44208628	      0.13336514	     -0.31664428	      0.41857746	      0.24712828	     -0.17883028	      0.40513626	      0.22852790	     -0.38093981	      0.06370603	      0.29469067	     -0.23412429	      0.09526414	      0.11762331	     -0.36465874	      0.07046692	      0.23484160	     -0.23277454	      0.09041194	      0.18413486	     -0.38174647	      1.22004223	      0.25939366	     -0.27511707	      1.16362417	      0.30948761	     -0.26981980	      1.16791523	      0.23365627	     -0.28699547	      1.16415441	      0.26906508	     -0.25617683	      1.08285689	      0.26903224	     -0.24553928	      0.51733333	      0.42839041	     -0.08928475	      0.60158020	      0.19990984	     -0.31109089	      0.57883525	      0.39008042	     -0.17086788	      0.63237268	      0.15633856	     -0.31062433	      0.49633166	      0.36642811	     -0.14863157	      0.54771572	      0.15657231	     -0.39501181	      0.16876182	      0.37860805	     -0.18665279	      0.21806042	      0.05637905	     -0.38432512	      0.13959377	      0.30197534	     -0.21908699	      0.17751852	      0.12378325	     -0.27549034	      0.03659260	      0.28724959	     -0.13868333	      0.05110179	      0.14958021
